<svg id="Capa_1" enable-background="new 0 0 512 512" height="512" viewBox="0 0 512 512" width="512" xmlns="http://www.w3.org/2000/svg"><g><g><path d="m456.969 407.139c27.744-39.712 44.031-88.02 44.031-140.139 0-135.31-109.69-245-245-245s-245 109.69-245 245c0 52.119 16.287 100.427 44.031 140.139z" fill="#4fabf7"/></g><g><circle cx="256" cy="222" fill="#73c3f9" r="180"/></g><g><path d="m339.003 36.423c-19.784-22.322-47.62-36.423-81.869-36.423s-48.985 5.638-62.772 12-14.708 34.073-14.708 34.073c-17.176 18.715-27.663 43.666-27.663 71.07v30.076h210.286v-30.076c0-23.009-3.49-58.398-23.274-80.72z" fill="#2d3c6b"/></g><g><path d="m151.991 117.143v30.076h42.846v-62.315c-10.759-7.032-15.794-24.117-15.183-38.831-17.176 18.714-27.663 43.666-27.663 71.07z" fill="#222d5b"/></g><g><path d="m331.146 500.252 96.394-58.372c10.834-10.632 20.69-22.259 29.409-34.74-9.22-25.363-19.04-47.328-27.391-54.702-23.413-20.673-123.588-37.434-126.172-37.863h-94.772c-2.584.428-102.759 17.19-126.172 37.863-8.351 7.373-18.17 29.339-27.391 54.702 44.284 63.387 117.758 104.86 200.949 104.86 26.217 0 51.468-4.123 75.146-11.748z" fill="#7255ce"/></g><g><path d="m303.386 314.575h-94.772c-2.584.428-102.759 17.19-126.172 37.863-8.351 7.373-18.17 29.339-27.391 54.702 44.284 63.387 117.758 104.86 200.949 104.86-42.129-24.122-68.365-58.899-84.672-91.742-7.135-14.371 4.879-30.926 20.754-28.604 21.617 3.162 43.453 4.576 63.918 3.005 93.098-7.147 131.537-60.931 131.562-60.964-36.91-11.214-82.445-18.833-84.176-19.12z" fill="#5c45bf"/></g><g><path d="m199.557 448.18c-3.115 0-6.026-1.957-7.094-5.069-6.048-17.635-4.18-36.993 5.124-53.109 9.305-16.116 25.135-27.412 43.432-30.992 4.076-.796 8.006 1.856 8.801 5.92.796 4.065-1.855 8.005-5.92 8.8-14.041 2.747-26.187 11.412-33.322 23.771-7.136 12.36-8.566 27.21-3.925 40.743 1.344 3.918-.744 8.184-4.662 9.527-.806.278-1.627.409-2.434.409z" fill="#4432ad"/></g><g><path d="m312.443 448.18c-.808 0-1.628-.131-2.434-.408-3.918-1.343-6.006-5.609-4.662-9.527 4.642-13.533 3.211-28.383-3.925-40.743-7.136-12.359-19.281-21.024-33.322-23.771-4.064-.795-6.716-4.735-5.92-8.8s4.734-6.716 8.801-5.92c18.297 3.58 34.127 14.876 43.432 30.992 9.304 16.116 11.172 35.474 5.124 53.109-1.067 3.111-3.978 5.068-7.094 5.068z" fill="#4432ad"/></g><g><path d="m391.334 298.093c0-27.025-50.417-93.825-135.334-93.825s-135.334 66.801-135.334 93.825c0 4.265 2.183 9.092 6.047 14.196 2.613 3.451 2.712 8.232.283 11.815-1.968 2.902-2.974 5.523-2.974 7.688 0 15.132 85.459 42.877 131.979 42.877s131.979-27.745 131.979-42.877c0-2.165-1.007-4.786-2.974-7.688-2.429-3.583-2.33-8.364.283-11.815 3.862-5.104 6.045-9.93 6.045-14.196z" fill="#7255ce"/></g><g><g><g><path d="m255.98 240.87c-50.554 0-98.997 32.094-72.615 78.423h72.635z" fill="#4432ad"/></g></g><g><g><path d="m256.02 240.87-.02 78.498h73.005c26.383-46.33-22.431-78.498-72.985-78.498z" fill="#4432ad"/></g></g></g><g><path d="m303.386 314.575h-94.772c-.799.132-10.938 1.829-25.249 4.718 14.925 16.028 39.828 35.469 72.854 35.469 32.975 0 57.853-19.381 72.786-35.394-14.508-2.936-24.813-4.66-25.619-4.793z" fill="#e9efff"/></g><g><path d="m303.386 220.734h-94.772v93.841s19.021 20.093 47.17 20.093 47.602-20.093 47.602-20.093z" fill="#fcad6d"/></g><g><path d="m208.614 220.734v93.841c94.723 0 94.772-53.4 94.772-53.4v-40.44h-94.772z" fill="#fd995b"/></g><g><path d="m331.058 159.567s10.385-25.285 28.897-19.415-.448 60.664-36.573 64.116z" fill="#fcad6d"/></g><g><path d="m180.942 159.567s-10.385-25.285-28.897-19.415.448 60.664 36.573 64.116z" fill="#fd995b"/></g><g><path d="m194.837 84.904c-10.322 3.439-17.93 12.279-20.432 22.867-2.552 10.801-6.002 27.519-6.002 38.984 0 64.505 39.219 140.155 87.597 140.155s87.597-75.65 87.597-140.155c0-1.674-.033-2.084-.085-3.733-81.411-.002-112.185-70.275-148.675-58.118z" fill="#f9ba8f"/></g><g><path d="m276 282.564c-38.741-16.953-67.597-80.479-67.597-135.809 0-21.971 4.564-41.826 12.476-58.475-8.87-4.459-17.292-6.291-26.042-3.376-10.322 3.439-17.93 12.279-20.432 22.867-2.552 10.801-6.002 27.519-6.002 38.984 0 64.505 39.219 140.155 87.597 140.155 6.881 0 13.576-1.535 20-4.346z" fill="#fcad6d"/></g><g><path d="m364.777 131.468h-217.239c-4.107 0-7.688 3.165-7.811 7.269-.127 4.247 3.278 7.731 7.497 7.731h23.776c3.073 0 5.739 2.122 6.428 5.117l6.063 26.35c1.149 4.994 5.595 8.533 10.72 8.533h38.579c5.125 0 9.571-3.539 10.72-8.533l6.063-26.35c.689-2.995 3.355-5.117 6.428-5.117 3.073 0 5.739 2.122 6.428 5.117l6.063 26.35c1.149 4.994 5.595 8.533 10.72 8.533h38.579c5.125 0 9.571-3.539 10.72-8.534l6.063-26.349c.689-2.995 3.355-5.117 6.428-5.117h23.462c4.107 0 7.688-3.164 7.811-7.269.126-4.248-3.28-7.731-7.498-7.731z" fill="#e9efff"/></g><g><path d="m248.5 138.968c0-4.142 3.358-7.5 7.5-7.5h-108.462c-4.107 0-7.688 3.165-7.811 7.27-.127 4.247 3.278 7.73 7.497 7.73h23.776c3.073 0 5.739 2.122 6.428 5.117l6.063 26.35c1.149 4.994 5.595 8.533 10.72 8.533h38.579c5.125 0 9.571-3.539 10.72-8.533l6.063-26.35c.689-2.995 3.355-5.117 6.428-5.117-4.143 0-7.501-3.358-7.501-7.5z" fill="#dae2fe"/></g><g><path d="m91.07 426.843v21.327c7.157 6.519 14.704 12.617 22.599 18.262l-12.035-41.103c-1.75-5.98-10.564-4.716-10.564 1.514z" fill="#4432ad"/></g><g><g><path d="m242.013 192.447 8.436-13.441c2.569-4.093 8.533-4.093 11.102 0l8.436 13.441c2.739 4.365-.398 10.038-5.551 10.038h-16.871c-5.154-.001-8.291-5.674-5.552-10.038z" fill="#fd995b"/></g></g><g><g><path d="m235.384 240.87h41.233c4.111-3.622 7.258-8.309 9.01-13.631 1.584-4.811-2.069-9.754-7.134-9.754h-44.985c-5.065 0-8.718 4.943-7.134 9.754 1.752 5.322 4.899 10.009 9.01 13.631z" fill="#0e1b41"/></g><g><path d="m276.616 240.87c-5.493 4.849-12.714 7.798-20.616 7.798s-15.124-2.948-20.616-7.798c5.5-4.849 12.714-7.798 20.616-7.798s15.116 2.949 20.616 7.798z" fill="#ff4155"/></g></g><g><path d="m194.211 176.468c-.469 0-.869-.318-.974-.774l-7.595-33.002c-.026-.115-.107-.469.192-.846.301-.377.664-.377.783-.377h53.764c.119 0 .482 0 .783.377.3.377.219.731.192.847l-7.594 32.999c-.105.458-.506.776-.975.776z" fill="#73c3f9"/></g><g><path d="m205.579 141.468h-18.961c-.119 0-.482 0-.783.377-.3.377-.219.731-.192.846l7.595 33.002c.104.456.505.774.974.774h19.242z" fill="#4fabf7"/></g><g><path d="m201.001 162.085c-.043-3.495 1.371-7.004 4.242-9.539 4.675-4.128 11.84-4.128 16.515 0 2.871 2.535 4.284 6.044 4.242 9.539-.055 4.538-5.629 6.716-8.838 3.507-2.022-2.022-5.3-2.022-7.322 0-3.21 3.21-8.784 1.032-8.839-3.507z" fill="#157dd1"/></g><g><path d="m279.211 176.468c-.469 0-.869-.318-.974-.774l-7.595-33.002c-.026-.115-.107-.469.192-.846.301-.377.664-.377.783-.377h53.764c.119 0 .482 0 .783.377.3.377.219.731.192.847l-7.594 32.999c-.105.458-.506.776-.975.776z" fill="#ff4155"/></g><g><path d="m290.579 141.468h-18.961c-.119 0-.482 0-.783.377-.3.377-.219.731-.192.846l7.595 33.002c.104.456.505.774.974.774h19.242z" fill="#e80054"/></g><g><path d="m310.999 162.085c.043-3.495-1.371-7.004-4.242-9.539-4.675-4.128-11.84-4.128-16.515 0-2.871 2.535-4.284 6.044-4.242 9.539.055 4.538 5.629 6.716 8.838 3.507 2.022-2.022 5.3-2.022 7.322 0 3.21 3.21 8.784 1.032 8.839-3.507z" fill="#cc0053"/></g><g><path d="m223.5 123.968h-20c-4.142 0-7.5-3.358-7.5-7.5 0-4.142 3.358-7.5 7.5-7.5h20c4.142 0 7.5 3.358 7.5 7.5 0 4.142-3.358 7.5-7.5 7.5z" fill="#0e1b41"/></g><g><path d="m308.5 123.968h-20c-4.142 0-7.5-3.358-7.5-7.5 0-4.142 3.358-7.5 7.5-7.5h20c4.142 0 7.5 3.358 7.5 7.5 0 4.142-3.358 7.5-7.5 7.5z" fill="#0e1b41"/></g><g><g><circle cx="356.362" cy="350.043" fill="#ff9100" r="20"/></g><g><circle cx="376.362" cy="330.043" fill="#ffb332" r="20"/></g><g><circle cx="396.362" cy="350.043" fill="#ffb332" r="20"/></g><g><circle cx="405.474" cy="372" fill="#fed469" r="20"/></g><g><circle cx="347.249" cy="372" fill="#ff9100" r="20"/></g><g><circle cx="376.362" cy="363.371" fill="#fed469" r="20"/></g><g><path d="m360.873 488.443c11.002-5.221 21.558-11.229 31.584-17.967l5.935-12.579-3.247-66.507c.361-10.6-8.134-19.39-18.74-19.39h-.087c-10.606 0-19.102 8.79-18.74 19.39l-4.264 87.339z" fill="#ff4155"/></g><g><path d="m360.873 488.443c11.002-5.221 21.558-11.228 31.584-17.967l5.935-12.579-.943-19.316c-19.352-4.651-32.33-13.693-41.019-23.659l-3.115 63.807z" fill="#e80054"/></g><g><path d="m357.535 390.112c-.345-10.101-8.633-18.112-18.74-18.112-11.11 0-19.784 9.606-18.654 20.659l11.004 107.593c10.224-3.293 20.154-7.238 29.742-11.789z" fill="#e9efff"/></g><g><path d="m358.456 417.139c-19.141-20.102-19.661-45.139-19.661-45.139-11.11 0-19.784 9.606-18.654 20.659l11.004 107.593c10.224-3.293 20.155-7.238 29.742-11.789z" fill="#dae2fe"/></g><g><path d="m427.549 441.871 5.033-49.212c1.131-11.053-7.543-20.659-18.653-20.659-10.107 0-18.396 8.011-18.74 18.112l-2.74 80.381c12.575-8.454 24.323-18.045 35.1-28.622z" fill="#e9efff"/></g><g><path d="m393.571 437.568-1.123 32.924c12.573-8.451 24.317-18.039 35.092-28.613-13.19 0-24.408-1.603-33.969-4.311z" fill="#dae2fe"/></g></g></g></svg>