<svg id="Layer_1" enable-background="new 0 0 512 512" height="512" viewBox="0 0 512 512" width="512" xmlns="http://www.w3.org/2000/svg"><g><path d="m256 21.996c-135.311 0-245.002 109.691-245.002 245.002 0 126.391 95.709 230.415 218.604 243.583h52.797c122.894-13.168 218.604-117.192 218.604-243.583-.001-135.311-109.692-245.002-245.003-245.002z" fill="#73c3f9"/><path d="m279.461 467.302 75.933-89.638h-75.933z" fill="#2a428c"/><path d="m232.538 467.302-75.933-89.638h75.933z" fill="#1c2e7a"/><path d="m229.602 510.581c8.673.929 17.478 1.419 26.398 1.419s17.725-.49 26.398-1.419v-132.917h-52.797v132.917z" fill="#425ea5"/><path d="m256 457.413c0-14.546 11.792-26.337 26.337-26.337h.061v-53.411h-52.797v132.917c8.674.928 17.479 1.418 26.399 1.418z" fill="#2a428c"/><g><path d="m469.265 55.804c-4.866 0-8.811-3.944-8.811-8.811v-15.463c0-3.554-2.892-6.447-6.446-6.447h-396.016c-3.554 0-6.446 2.892-6.446 6.447v15.463c0 4.867-3.945 8.811-8.811 8.811s-8.811-3.944-8.811-8.811v-15.463c0-13.272 10.797-24.069 24.068-24.069h396.015c13.271 0 24.068 10.797 24.068 24.069v15.463c.001 4.867-3.944 8.811-8.81 8.811z" fill="#2a428c"/></g><path d="m150 7.461h-92.008c-13.271 0-24.068 10.797-24.068 24.069v15.463c0 4.867 3.945 8.811 8.811 8.811s8.811-3.944 8.811-8.811v-15.463c0-3.554 2.892-6.447 6.446-6.447h92.008c-10-9.999 0-17.622 0-17.622z" fill="#1c2e7a"/><path d="m480.96 48.461h-449.92c-9.573 0-17.334 7.761-17.334 17.334v253.698c0 9.573 7.761 17.334 17.334 17.334h449.92c9.573 0 17.334-7.761 17.334-17.334v-253.698c0-9.573-7.76-17.334-17.334-17.334z" fill="#fc90ce"/><path d="m93.039 319.493v-253.698c0-9.573 7.761-17.334 17.334-17.334h-79.333c-9.573 0-17.334 7.761-17.334 17.334v253.698c0 9.573 7.761 17.334 17.334 17.334h79.333c-9.573-.001-17.334-7.761-17.334-17.334z" fill="#fe72c2"/><path d="m272.685 283.244c-.185-1.799-.665-3.508-1.374-5.092l226.983-101.283v-67.617l-228.728 165.892c-1.039-1.431-2.296-2.688-3.727-3.727l161.708-222.956h-66.007l-98.707 221.211c-1.585-.708-3.293-1.188-5.092-1.374l22.923-219.837h-49.326l22.923 219.837c-1.799.185-3.508.665-5.092 1.374l-98.709-221.211h-66.007l161.707 222.956c-1.43 1.039-2.688 2.296-3.727 3.727l-228.727-165.893v67.618l226.983 101.283c-.708 1.585-1.188 3.293-1.374 5.092l-225.609-23.525v50.529l225.609-23.525c.185 1.799.665 3.508 1.374 5.092l-100.872 45.01h44.704l57.912-42.003c1.04 1.43 2.297 2.687 3.727 3.727l-27.761 38.276h14.468l16.301-36.531c1.585.708 3.293 1.188 5.092 1.374l-3.666 35.158h10.812l-3.666-35.158c1.799-.186 3.508-.665 5.092-1.374l16.301 36.531h14.468l-27.761-38.275c1.43-1.039 2.687-2.297 3.727-3.727l57.913 42.003h44.704l-100.872-45.01c.708-1.585 1.188-3.293 1.374-5.092l225.609 23.525v-50.529z" fill="#ffbbe5"/><g fill="#fc90ce"><path d="m93.039 166.79-79.333-57.539v67.617l79.333 35.4z"/><path d="m93.039 267.991-79.333-8.272v50.53l79.333-8.273z"/></g><path d="m343.894 336.827h49.74c-4.031-20.385-9.199-40.48-15.812-59.163-1.13-3.257-3.164-5.704-5.358-7.512-4.59 6.572-20.849 31.623-28.57 66.675z" fill="#fee77f"/><path d="m352.598 308.207c-3.308 8.484-6.384 18.107-8.7 28.62h18.574c-3.91-12.228-7.489-22.04-9.874-28.62z" fill="#ffdd40"/><path d="m117.808 336.827h49.74c-7.721-35.052-23.98-60.103-28.57-66.676-2.194 1.808-4.228 4.255-5.358 7.512-6.613 18.684-11.781 38.779-15.812 59.164z" fill="#ffc839"/><path d="m133.62 277.663c-6.612 18.683-11.781 38.778-15.812 59.163h31.34c2.123-6.85 4.18-12.297 5.969-16.369 1.271-2.894 3.187-5.406 5.551-7.385-8.079-22.425-18.22-37.953-21.69-42.922-2.194 1.809-4.229 4.256-5.358 7.513z" fill="#ffb332"/><path d="m283.079 215.925c-5.25 5.671-10.956 9.481-15.867 11.979-7.431 3.781-16.169 3.786-23.601.008-4.789-2.435-10.324-6.113-15.453-11.551-.455 4.44-1.165 9.432-3.073 12.568-.573.942-1.514 1.597-2.585 1.86l-.014.003c.103.602.225 1.196.356 1.787 2.034 4.145 7.68 11.394 23.346 19.764.966.516 1.588 1.42 1.707 2.48l.095.856h15.462l.095-.856c.119-1.06.741-1.964 1.707-2.48 14.957-7.992 20.779-14.959 23.046-19.182.188-.781.358-1.569.495-2.369-1.084-.262-2.033-.927-2.61-1.881-1.962-3.24-2.652-8.448-3.106-12.986z" fill="#fcad6d"/><path d="m256.452 230.706c-4.406.177-8.846-.758-12.891-2.82-4.777-2.435-10.292-6.106-15.403-11.525-.455 4.44-1.165 9.432-3.073 12.568-.573.942-1.514 1.597-2.585 1.86l-.014.003c.103.602.225 1.196.357 1.787 2.034 4.146 7.68 11.394 23.345 19.764.966.516 1.588 1.42 1.707 2.48l.095.856h2.087c4.653-6.196 6.001-17.723 6.375-24.973z" fill="#fd995b"/><path d="m263.578 254.716h-15.713c.151 1.026-.202 2.12-1.107 2.884l-21.183 17.874.147.59c6.419 25.758 11.357 45.492 15.178 60.763h29.723c3.763-15.044 8.665-34.732 15.097-60.765l.145-.589-21.181-17.873c-.906-.765-1.257-1.858-1.106-2.884z" fill="#d3dcfb"/><path d="m255.641 293.428c-11.589 11.589-23.965 0-23.965 0l-1.767-.579c4.44 17.792 8.047 32.207 10.992 43.978h29.723c2.876-11.497 6.418-25.713 10.8-43.399-16.34 11.865-25.783 0-25.783 0z" fill="#bec8f7"/><path d="m290.476 231.13c-.39-1.045-1.858-1.083-2.266-.045-1.494 3.803-6.521 11.385-23.409 20.409-2.634 1.408-3.015 4.937-.745 6.852l20.717 17.482c0-.001 10.03-33.094 5.703-44.698z" fill="#e9efff"/><path d="m246.642 251.494c-16.888-9.024-21.915-16.606-23.409-20.409-.408-1.038-1.876-1.001-2.266.045-4.328 11.604 5.703 44.697 5.703 44.697l20.718-17.482c2.268-1.914 1.888-5.443-.746-6.851z" fill="#e9efff"/><path d="m247.991 254.716h15.431v82.111h-15.431z" fill="#e9efff"/><path d="m247.991 298.55v38.276h15.431v-38.276c-1.927 7.808-13.504 7.809-15.431 0z" fill="#d3dcfb"/><path d="m363.416 265.546c-19.934-5.861-39.202-14.697-52.841-21.665l-35.675 92.946h69.684c7.58-34.417 23.399-59.189 28.318-66.301-2.797-2.441-5.962-3.944-9.477-4.977-.002-.001-.009-.003-.009-.003z" fill="#ffc839"/><path d="m318.723 259.649-3.926-12.487c-.668-2.124-2.184-3.907-4.215-4.931-9.742-4.914-17.306-9.859-20.055-11.721-.34-.231-.77.105-.637.494.649 1.901.98 3.892.969 5.9-.034 6.139-1.011 14.411-2.213 20.442l17.989 14.248 10.122-6.606c1.79-1.169 2.588-3.334 1.966-5.339z" fill="#ffdd40"/><path d="m314.886 276.439c-9.714-6.588-20.793-16.945-25.737-21.723l-19.899 82.111h21.148c12.69-20.849 22.631-41.752 27.07-51.521 1.443-3.175.348-6.879-2.582-8.867z" fill="#fcf0be"/><path d="m148.026 265.546s-.007.002-.008.003c-3.514 1.033-6.68 2.536-9.477 4.977 4.919 7.113 20.737 31.885 28.318 66.301h71.672l-32.792-95.477c-13.671 7.228-35.272 17.599-57.713 24.196z" fill="#ffb332"/><path d="m218.007 277.067-12.267-35.718c-13.671 7.228-35.273 17.599-57.713 24.196s-.007.002-.009.002c-3.514 1.033-6.68 2.536-9.477 4.977 3.722 5.382 13.684 20.877 21.596 43.008 2.304-2.068 5.074-3.611 8.133-4.458 26.163-7.241 43.694-24.946 43.694-24.946z" fill="#ff9100"/><path d="m192.72 259.649 3.926-12.487c.668-2.124 2.184-3.907 4.215-4.931 9.511-4.797 16.946-9.624 19.852-11.583.406-.273.915.124.763.588-.598 1.83-.902 3.741-.891 5.668.034 6.139 1.011 14.411 2.213 20.442l-17.989 14.248-10.122-6.606c-1.792-1.169-2.589-3.334-1.967-5.339z" fill="#ffdd40"/><path d="m222.294 254.716c-4.944 4.778-16.023 15.135-25.737 21.723-2.931 1.988-4.025 5.692-2.583 8.866 4.44 9.769 14.38 30.672 27.071 51.521h21.148z" fill="#fcf0be"/><g><path d="m245.853 77.76c-28.779 3.921-31.514 20.238-31.527 26.225-.003 1.256-.698 2.419-1.827 2.968-14.97 7.282-6.899 42.381-6.899 42.381 1.503.1 3.077.709 4.25 1.278.287-1.788.756-3.549 1.419-5.251.505-1.297 1.136-2.607 1.925-3.845 1.369-2.148 1.993-4.682 1.807-7.215-.538-7.322-.279-21.75 9.386-26.099 8.188-3.684 18.232-1.551 24.637.579 4.16 1.383 8.666 1.383 12.825 0 6.405-2.13 16.449-4.263 24.637-.579 9.637 4.336 9.923 18.695 9.391 26.036-.185 2.552.422 5.112 1.801 7.277.814 1.278 1.461 2.633 1.974 3.97.637 1.663 1.091 3.382 1.371 5.126 1.479-.717 3.594-1.497 5.402-1.242.221-7.675.93-15.948.93-15.948 8.53-41.771-30.514-59.883-61.502-55.661z" fill="#823c26"/></g><path d="m248.597 108.643c-.085-.152-.165-.305-.256-.457-12.022-20.271 4.954-30.865 4.954-30.865l-.181-.138c-2.451.06-4.88.251-7.262.576-28.779 3.921-31.515 20.238-31.527 26.225-.003 1.256-.698 2.419-1.827 2.968-14.97 7.282-6.899 42.381-6.899 42.381 1.503.1 3.077.709 4.25 1.278.287-1.788.757-3.549 1.419-5.251.505-1.297 1.136-2.607 1.925-3.845 1.369-2.148 1.993-4.682 1.807-7.214-.538-7.322-.279-21.75 9.386-26.099 8.013-3.606 17.793-1.64 24.211.441z" fill="#702f1e"/><path d="m309.865 150.24c-2.241-2.054-6.707-1.013-8.637.245.423 2.634.447 5.328.082 7.989l-2.278 16.592c0 1.337-.042 2.65-.12 3.939 5.555 1.676 8.315-3.312 8.78-6.734.2-1.473.527-2.926.981-4.342 1.477-4.615 6.808-12.542 1.192-17.689z" fill="#fcad6d"/><g><path d="m304.784 167.135c-1.688 0-3.237-.598-4.445-1.595l-1.308 9.526c0 1.337-.042 2.65-.12 3.939 5.555 1.676 8.315-3.311 8.78-6.734.2-1.473.527-2.926.981-4.342.282-.88.704-1.882 1.164-2.961-1.274 1.333-3.064 2.167-5.052 2.167z" fill="#fd995b"/></g><path d="m201.416 150.24c2.242-2.054 6.706-1.013 8.637.245-.423 2.634-.447 5.328-.081 7.989l2.278 16.592c0 1.337.042 2.65.12 3.939-5.555 1.676-8.315-3.312-8.779-6.734-.2-1.473-.527-2.926-.981-4.342-1.479-4.615-6.81-12.542-1.194-17.689z" fill="#fcad6d"/><g><path d="m210.874 165.046c-1.268 1.288-3.03 2.089-4.981 2.089-1.532 0-2.944-.498-4.096-1.334.319.763.604 1.479.812 2.128.454 1.417.781 2.869.981 4.342.465 3.423 3.224 8.41 8.78 6.734-.077-1.289-.12-2.602-.12-3.939z" fill="#fd995b"/></g><path d="m211.689 175.191c0 2.429.136 4.763.378 7.011.329 1.09 9.821 31.512 43.92 31.512 34.03 0 42.496-30.296 42.82-31.503.24-2.236.375-4.556.375-6.97l2.279-16.592c.625-4.55.115-9.147-1.473-13.292-.566-1.477-1.241-2.835-2.006-4.035-1.308-2.051-1.928-4.558-1.747-7.059.578-7.982.1-22.024-9.601-26.389-8.147-3.665-18.036-1.716-24.896.566-4.063 1.352-8.539 1.352-12.602 0-6.861-2.282-16.749-4.233-24.896-.566-4.172 1.877-10.965 7.81-9.596 26.452.181 2.456-.441 4.94-1.751 6.996-.743 1.165-1.401 2.48-1.957 3.907-1.627 4.18-2.154 8.819-1.523 13.415z" fill="#f9ba8f"/><path d="m211.689 175.191c0 2.429.136 4.762.378 7.01.306 1.013 8.597 27.587 37.434 31.122-6.598-8.398-13.074-21.006-13.074-38.133l-2.275-16.547c-.631-4.596-.105-9.235 1.523-13.415.555-1.427 1.214-2.742 1.957-3.907 1.31-2.055 1.932-4.54 1.751-6.996-1.301-17.722 4.772-23.955 8.959-26.14-6.815-2.165-16.261-3.841-24.102-.312-4.172 1.877-10.965 7.81-9.596 26.452.181 2.456-.441 4.94-1.751 6.996-.743 1.165-1.401 2.48-1.957 3.907-1.627 4.18-2.154 8.819-1.523 13.415z" fill="#fcad6d"/><path d="m298.818 182.169c-1.796 4.432-5.965 9.765-12.807 12.732-1.263-7.53-6.696-15.07-13.949-16.715l-11.086-3.257c-1.927-.566-3.857.423-4.633 2.102-.142.307-.57.307-.711 0-.776-1.679-2.706-2.668-4.633-2.102l-11.086 3.257c-7.396 1.677-12.904 9.484-14.023 17.16-7.568-2.854-11.943-8.514-13.832-13.178 3.939 27.901 19.898 41.087 31.503 47.001 7.438 3.791 16.212 3.803 23.653.017 11.606-5.905 27.661-19.088 31.604-47.017zm-30.486 28.536c-4.761 1.682-9.957-1.312-10.567-6.269-.008-.064-.015-.129-.023-.194-.1-.924-.874-1.635-1.816-1.635-.942 0-1.716.71-1.816 1.635-.007.065-.015.13-.023.194-.61 4.957-5.806 7.951-10.568 6.269-6.552-2.315-9.37-6.699-10.581-9.913 3.549-4.855 8.776-8.339 14.792-9.667l1.98-.437c2.886-.637 5.118-3.455 5.937-6.457.094-.345.584-.345.678 0 .819 3.002 3.05 5.82 5.936 6.457l1.98.437c5.692 1.256 10.679 4.441 14.206 8.893-.728 3.246-3.018 8.18-10.115 10.687z" fill="#823c26"/><path d="m247.779 211.042-.004-.018c-1.368.261-2.829.184-4.254-.319-6.552-2.315-9.37-6.699-10.581-9.913 2.605-3.563 6.115-6.383 10.174-8.159-9.11-2.763-5.996-12.296-5.475-13.714-6.235 2.595-10.749 9.562-11.75 16.428-7.568-2.854-11.943-8.514-13.832-13.178 3.939 27.901 19.898 41.087 31.503 47.001 4.083 2.081 8.568 3.016 13.015 2.816-15.28-6.972-8.796-20.944-8.796-20.944z" fill="#702f1e"/><g><g><path d="m267.49 144.566c-5.613 1.815-8.481 8.542-4.97 14.07 4.258 6.704 12.321 15.493 22.468 15.493s13.59-9.875 13.59-15.855-3.715-15.855-16.761-15.855c-6.062-.001-10.893 1.037-14.327 2.147z" fill="#fcf0be"/></g></g><path d="m276.143 158.635c-3.511-5.528-.643-12.255 4.97-14.07 1.707-.552 3.759-1.085 6.135-1.483-1.598-.426-3.401-.665-5.429-.665-6.063 0-10.894 1.037-14.328 2.148-5.613 1.815-8.481 8.542-4.97 14.07 4.258 6.704 12.321 15.493 22.468 15.493 2.466 0 4.532-.587 6.253-1.555-6.664-2.821-11.934-8.953-15.099-13.938z" fill="#fee77f"/><g><g><path d="m244.484 144.566c5.613 1.815 8.481 8.542 4.97 14.07-4.258 6.704-12.321 15.493-22.468 15.493s-13.59-9.875-13.59-15.855 3.714-15.855 16.761-15.855c6.063-.001 10.893 1.037 14.327 2.147z" fill="#fcf0be"/></g></g><path d="m228.204 158.273c0-4.962 2.564-12.6 10.888-15.059-2.58-.475-5.567-.796-8.936-.796-13.046 0-16.761 9.875-16.761 15.855s3.443 15.855 13.59 15.855c2.864 0 5.561-.701 8.054-1.856-4.982-3.146-6.835-9.616-6.835-13.999z" fill="#fee77f"/><g><g><path d="m258.452 154.705c-1.498-.975-3.433-.975-4.931 0-.048.031-.098.062-.147.09-1.434.819-3.26.322-4.079-1.112-.796-1.393-.349-3.157.993-4.007 3.476-2.246 7.957-2.24 11.427.019 1.384.901 1.775 2.753.874 4.136s-2.752 1.775-4.137.874z" fill="#ffb332"/></g></g><path d="m249.844 259.033v-9.627c0-.255.039-.499.097-.736-7.939-5.342-15.758-6.895-20.362-7.319-2.253-.208-4.179 1.618-4.084 3.878.502 11.905 3.166 19.493 4.895 23.241.784 1.7 2.699 2.567 4.492 2.027 8.663-2.608 13.216-7.308 15.278-10.123-.196-.407-.316-.858-.316-1.341z" fill="#ff4155"/><path d="m281.701 241.352c-4.603.424-12.419 1.997-20.357 7.337.055.231.092.469.092.718v9.627c0 .482-.119.932-.315 1.339 2.06 2.815 6.607 7.515 15.277 10.126 1.793.54 3.707-.327 4.491-2.027 1.729-3.748 4.393-11.336 4.895-23.241.096-2.262-1.83-4.087-4.083-3.879z" fill="#ff4155"/><path d="m277.06 242.058c-4.423.923-10.035 2.809-15.715 6.631.055.231.092.469.092.718v9.627c0 .482-.119.932-.315 1.339 1.812 2.477 5.554 6.412 12.332 9.1-9.315-18.582 3.564-27.386 3.606-27.415z" fill="#e80054"/><path d="m234.222 242.058c4.423.923 10.035 2.809 15.715 6.631-.055.231-.092.469-.092.718v9.627c0 .482.119.932.315 1.339-1.812 2.477-5.554 6.412-12.333 9.1 9.316-18.582-3.563-27.386-3.605-27.415z" fill="#e80054"/><path d="m259.083 246.305h-6.884c-1.713 0-3.102 1.389-3.102 3.102v9.627c0 1.713 1.389 3.102 3.102 3.102h6.884c1.713 0 3.102-1.389 3.102-3.102v-9.627c0-1.714-1.389-3.102-3.102-3.102z" fill="#ff4155"/><path d="m257.255 248.4c-1.55 0-2.806 1.256-2.806 2.806v1.176c0 1.55 1.256 2.806 2.806 2.806 1.55 0 2.806-1.256 2.806-2.806v-1.176c0-1.55-1.257-2.806-2.806-2.806z" fill="#ff7186"/><g><path d="m480.96 345.638h-449.92c-14.416 0-26.145-11.729-26.145-26.145v-253.698c0-14.416 11.729-26.144 26.145-26.144h449.92c14.416 0 26.145 11.729 26.145 26.144v253.698c0 14.416-11.729 26.145-26.145 26.145zm-449.92-288.365c-4.699 0-8.523 3.823-8.523 8.522v253.698c0 4.699 3.823 8.523 8.523 8.523h449.92c4.699 0 8.523-3.824 8.523-8.523v-253.698c0-4.699-3.823-8.522-8.523-8.522z" fill="#425ea5"/></g><path d="m31.04 328.016c-4.699 0-8.523-3.824-8.523-8.523v-253.698c0-4.699 3.823-8.522 8.523-8.522h66.25l.684-17.622h-66.934c-14.416 0-26.145 11.729-26.145 26.144v253.698c0 14.417 11.729 26.145 26.145 26.145h74.49c-.395-.417-.986-.777-1.811-1.067-12.579-4.423-9.113-14.781-8.412-16.555z" fill="#2a428c"/><path d="m494.225 344.463h-476.45c-9.817 0-17.775 7.959-17.775 17.776s7.958 17.775 17.775 17.775h476.45c9.817 0 17.775-7.958 17.775-17.775 0-9.817-7.958-17.776-17.775-17.776z" fill="#5576b7"/><path d="m87.894 362.239c0-9.817 7.958-17.775 17.775-17.775h-87.894c-9.817-.001-17.775 7.958-17.775 17.775s7.958 17.775 17.775 17.775h87.894c-9.817 0-17.775-7.958-17.775-17.775z" fill="#425ea5"/><g><path d="m321.659 415.806c-4.866 0-8.811-3.944-8.811-8.811v-33.677c0-4.867 3.945-8.811 8.811-8.811s8.811 3.945 8.811 8.811v33.677c0 4.867-3.945 8.811-8.811 8.811z" fill="#425ea5"/></g><g><path d="m387.319 415.806c-4.866 0-8.811-3.944-8.811-8.811v-33.677c0-4.867 3.945-8.811 8.811-8.811s8.811 3.945 8.811 8.811v33.677c0 4.867-3.945 8.811-8.811 8.811z" fill="#425ea5"/></g><g><path d="m452.978 415.806c-4.866 0-8.811-3.944-8.811-8.811v-33.677c0-4.867 3.945-8.811 8.811-8.811s8.811 3.945 8.811 8.811v33.677c0 4.867-3.945 8.811-8.811 8.811z" fill="#425ea5"/></g><g><path d="m59.022 415.806c-4.866 0-8.811-3.944-8.811-8.811v-33.677c0-4.867 3.945-8.811 8.811-8.811s8.811 3.945 8.811 8.811v33.677c0 4.867-3.945 8.811-8.811 8.811z" fill="#2a428c"/></g><g><path d="m124.682 415.806c-4.866 0-8.811-3.944-8.811-8.811v-33.677c0-4.867 3.945-8.811 8.811-8.811s8.811 3.945 8.811 8.811v33.677c0 4.867-3.945 8.811-8.811 8.811z" fill="#425ea5"/></g><g><path d="m190.341 415.806c-4.866 0-8.811-3.944-8.811-8.811v-33.677c0-4.867 3.945-8.811 8.811-8.811s8.811 3.945 8.811 8.811v33.677c0 4.867-3.945 8.811-8.811 8.811z" fill="#425ea5"/></g><g fill="#425ea5"><path d="m100.141 0c-8.257 0-15.014 6.756-15.014 15.014v39.678c0 8.258 6.756 15.014 15.014 15.014 8.257 0 15.014-6.756 15.014-15.014v-39.678c0-8.258-6.757-15.014-15.014-15.014z"/><path d="m204.047 0c-8.258 0-15.014 6.756-15.014 15.014v39.678c0 8.258 6.756 15.014 15.014 15.014 8.257 0 15.014-6.756 15.014-15.014v-39.678c0-8.258-6.757-15.014-15.014-15.014z"/><path d="m307.953 0c-8.258 0-15.014 6.756-15.014 15.014v39.678c0 8.258 6.756 15.014 15.014 15.014 8.257 0 15.014-6.756 15.014-15.014v-39.678c0-8.258-6.756-15.014-15.014-15.014z"/><path d="m411.859 0c-8.258 0-15.014 6.756-15.014 15.014v39.678c0 8.258 6.756 15.014 15.014 15.014 8.257 0 15.014-6.756 15.014-15.014v-39.678c0-8.258-6.756-15.014-15.014-15.014z"/></g><path d="m100.141 30.154c-8.257 0-15.014 6.756-15.014 15.014v10.7c0 8.257 6.756 15.014 15.014 15.014 8.257 0 15.014-6.756 15.014-15.014v-10.7c0-8.258-6.757-15.014-15.014-15.014z" fill="#ffdd40"/><path d="m204.047 30.154c-8.258 0-15.014 6.756-15.014 15.014v10.7c0 8.257 6.756 15.014 15.014 15.014 8.258 0 15.014-6.756 15.014-15.014v-10.7c0-8.258-6.756-15.014-15.014-15.014z" fill="#ffdd40"/><path d="m307.953 30.154c-8.258 0-15.014 6.756-15.014 15.014v10.7c0 8.257 6.756 15.014 15.014 15.014 8.257 0 15.014-6.756 15.014-15.014v-10.7c0-8.258-6.756-15.014-15.014-15.014z" fill="#ffdd40"/><path d="m411.859 30.154c-8.258 0-15.014 6.756-15.014 15.014v10.7c0 8.257 6.756 15.014 15.013 15.014 8.257 0 15.014-6.756 15.014-15.014v-10.7c.001-8.258-6.756-15.014-15.013-15.014z" fill="#ffdd40"/><path d="m100.141 55.216c-7.411 0-13.595-5.447-14.79-12.531-.137.81-.224 1.635-.224 2.482v10.7c0 8.258 6.756 15.014 15.014 15.014 8.257 0 15.014-6.756 15.014-15.014v-10.7c0-.847-.088-1.673-.224-2.482-1.195 7.085-7.38 12.531-14.79 12.531z" fill="#ffc839"/><path d="m204.047 55.216c-7.411 0-13.595-5.447-14.789-12.531-.137.81-.224 1.635-.224 2.482v10.7c0 8.258 6.756 15.014 15.014 15.014 8.257 0 15.014-6.756 15.014-15.014v-10.7c0-.847-.088-1.673-.225-2.482-1.195 7.085-7.379 12.531-14.79 12.531z" fill="#ffc839"/><path d="m307.953 55.216c-7.411 0-13.595-5.447-14.789-12.531-.136.81-.224 1.635-.224 2.482v10.7c0 8.258 6.756 15.014 15.014 15.014 8.257 0 15.014-6.756 15.014-15.014v-10.7c0-.847-.088-1.673-.224-2.482-1.196 7.085-7.381 12.531-14.791 12.531z" fill="#ffc839"/><path d="m411.859 55.216c-7.411 0-13.595-5.447-14.79-12.531-.137.81-.224 1.635-.224 2.482v10.7c0 8.258 6.756 15.014 15.013 15.014h.001c8.257 0 15.014-6.756 15.014-15.014v-10.7c0-.847-.088-1.673-.224-2.482-1.195 7.085-7.379 12.531-14.79 12.531z" fill="#ffc839"/><g><path d="m452.978 415.806h-393.956c-4.866 0-8.811-3.944-8.811-8.811s3.945-8.811 8.811-8.811h393.956c4.866 0 8.811 3.944 8.811 8.811s-3.945 8.811-8.811 8.811z" fill="#5576b7"/></g><path d="m91.544 406.995c0-4.867 3.945-8.811 8.811-8.811h-41.333c-4.866 0-8.811 3.944-8.811 8.811s3.945 8.811 8.811 8.811h41.333c-4.866 0-8.811-3.944-8.811-8.811z" fill="#425ea5"/></g></svg>