<svg width="1968" height="537" viewBox="0 0 1968 537" fill="none" xmlns="http://www.w3.org/2000/svg">
<path fill-rule="evenodd" clip-rule="evenodd" d="M537 0H1968V537H537H0V0H537ZM1929 38H575V499H1929V38Z" fill="black"/>
<path d="M850.757 294H811.757L804.317 312H784.397L821.837 228H841.037L878.597 312H858.197L850.757 294ZM844.637 279.24L831.317 247.08L817.997 279.24H844.637ZM885.992 222.96H904.712V312H885.992V222.96ZM986.165 247.44L958.925 312H939.605L912.485 247.44H931.805L949.685 291.36L968.165 247.44H986.165ZM1017.73 246.48C1027.73 246.48 1035.41 248.88 1040.77 253.68C1046.13 258.4 1048.81 265.56 1048.81 275.16V312H1031.29V303.96C1027.77 309.96 1021.21 312.96 1011.61 312.96C1006.65 312.96 1002.33 312.12 998.655 310.44C995.055 308.76 992.295 306.44 990.375 303.48C988.455 300.52 987.495 297.16 987.495 293.4C987.495 287.4 989.735 282.68 994.215 279.24C998.775 275.8 1005.77 274.08 1015.21 274.08H1030.09C1030.09 270 1028.85 266.88 1026.37 264.72C1023.89 262.48 1020.17 261.36 1015.21 261.36C1011.77 261.36 1008.37 261.92 1005.01 263.04C1001.73 264.08 998.935 265.52 996.615 267.36L989.895 254.28C993.415 251.8 997.615 249.88 1002.49 248.52C1007.45 247.16 1012.53 246.48 1017.73 246.48ZM1016.29 300.36C1019.49 300.36 1022.33 299.64 1024.81 298.2C1027.29 296.68 1029.05 294.48 1030.09 291.6V285H1017.25C1009.57 285 1005.73 287.52 1005.73 292.56C1005.73 294.96 1006.65 296.88 1008.49 298.32C1010.41 299.68 1013.01 300.36 1016.29 300.36ZM1083.64 255.96C1085.88 252.84 1088.88 250.48 1092.64 248.88C1096.48 247.28 1100.88 246.48 1105.84 246.48V263.76C1103.76 263.6 1102.36 263.52 1101.64 263.52C1096.28 263.52 1092.08 265.04 1089.04 268.08C1086 271.04 1084.48 275.52 1084.48 281.52V312H1065.76V247.44H1083.64V255.96ZM1147.1 312.96C1140.3 312.96 1134.18 311.56 1128.74 308.76C1123.38 305.88 1119.18 301.92 1116.14 296.88C1113.1 291.84 1111.58 286.12 1111.58 279.72C1111.58 273.32 1113.1 267.6 1116.14 262.56C1119.18 257.52 1123.38 253.6 1128.74 250.8C1134.18 247.92 1140.3 246.48 1147.1 246.48C1153.9 246.48 1159.98 247.92 1165.34 250.8C1170.7 253.6 1174.9 257.52 1177.94 262.56C1180.98 267.6 1182.5 273.32 1182.5 279.72C1182.5 286.12 1180.98 291.84 1177.94 296.88C1174.9 301.92 1170.7 305.88 1165.34 308.76C1159.98 311.56 1153.9 312.96 1147.1 312.96ZM1147.1 297.6C1151.9 297.6 1155.82 296 1158.86 292.8C1161.98 289.52 1163.54 285.16 1163.54 279.72C1163.54 274.28 1161.98 269.96 1158.86 266.76C1155.82 263.48 1151.9 261.84 1147.1 261.84C1142.3 261.84 1138.34 263.48 1135.22 266.76C1132.1 269.96 1130.54 274.28 1130.54 279.72C1130.54 285.16 1132.1 289.52 1135.22 292.8C1138.34 296 1142.3 297.6 1147.1 297.6ZM1307.36 228V312H1291.4L1249.52 261V312H1230.32V228H1246.4L1288.16 279V228H1307.36ZM1356.63 312.96C1349.83 312.96 1343.71 311.56 1338.27 308.76C1332.91 305.88 1328.71 301.92 1325.67 296.88C1322.63 291.84 1321.11 286.12 1321.11 279.72C1321.11 273.32 1322.63 267.6 1325.67 262.56C1328.71 257.52 1332.91 253.6 1338.27 250.8C1343.71 247.92 1349.83 246.48 1356.63 246.48C1363.43 246.48 1369.51 247.92 1374.87 250.8C1380.23 253.6 1384.43 257.52 1387.47 262.56C1390.51 267.6 1392.03 273.32 1392.03 279.72C1392.03 286.12 1390.51 291.84 1387.47 296.88C1384.43 301.92 1380.23 305.88 1374.87 308.76C1369.51 311.56 1363.43 312.96 1356.63 312.96ZM1356.63 297.6C1361.43 297.6 1365.35 296 1368.39 292.8C1371.51 289.52 1373.07 285.16 1373.07 279.72C1373.07 274.28 1371.51 269.96 1368.39 266.76C1365.35 263.48 1361.43 261.84 1356.63 261.84C1351.83 261.84 1347.87 263.48 1344.75 266.76C1341.63 269.96 1340.07 274.28 1340.07 279.72C1340.07 285.16 1341.63 289.52 1344.75 292.8C1347.87 296 1351.83 297.6 1356.63 297.6ZM1404.55 222.96H1423.27V312H1404.55V222.96ZM1466.68 246.48C1476.68 246.48 1484.36 248.88 1489.72 253.68C1495.08 258.4 1497.76 265.56 1497.76 275.16V312H1480.24V303.96C1476.72 309.96 1470.16 312.96 1460.56 312.96C1455.6 312.96 1451.28 312.12 1447.6 310.44C1444 308.76 1441.24 306.44 1439.32 303.48C1437.4 300.52 1436.44 297.16 1436.44 293.4C1436.44 287.4 1438.68 282.68 1443.16 279.24C1447.72 275.8 1454.72 274.08 1464.16 274.08H1479.04C1479.04 270 1477.8 266.88 1475.32 264.72C1472.84 262.48 1469.12 261.36 1464.16 261.36C1460.72 261.36 1457.32 261.92 1453.96 263.04C1450.68 264.08 1447.88 265.52 1445.56 267.36L1438.84 254.28C1442.36 251.8 1446.56 249.88 1451.44 248.52C1456.4 247.16 1461.48 246.48 1466.68 246.48ZM1465.24 300.36C1468.44 300.36 1471.28 299.64 1473.76 298.2C1476.24 296.68 1478 294.48 1479.04 291.6V285H1466.2C1458.52 285 1454.68 287.52 1454.68 292.56C1454.68 294.96 1455.6 296.88 1457.44 298.32C1459.36 299.68 1461.96 300.36 1465.24 300.36ZM1536.42 312.96C1531.06 312.96 1525.82 312.32 1520.7 311.04C1515.58 309.68 1511.5 308 1508.46 306L1514.7 292.56C1517.58 294.4 1521.06 295.92 1525.14 297.12C1529.22 298.24 1533.22 298.8 1537.14 298.8C1545.06 298.8 1549.02 296.84 1549.02 292.92C1549.02 291.08 1547.94 289.76 1545.78 288.96C1543.62 288.16 1540.3 287.48 1535.82 286.92C1530.54 286.12 1526.18 285.2 1522.74 284.16C1519.3 283.12 1516.3 281.28 1513.74 278.64C1511.26 276 1510.02 272.24 1510.02 267.36C1510.02 263.28 1511.18 259.68 1513.5 256.56C1515.9 253.36 1519.34 250.88 1523.82 249.12C1528.38 247.36 1533.74 246.48 1539.9 246.48C1544.46 246.48 1548.98 247 1553.46 248.04C1558.02 249 1561.78 250.36 1564.74 252.12L1558.5 265.44C1552.82 262.24 1546.62 260.64 1539.9 260.64C1535.9 260.64 1532.9 261.2 1530.9 262.32C1528.9 263.44 1527.9 264.88 1527.9 266.64C1527.9 268.64 1528.98 270.04 1531.14 270.84C1533.3 271.64 1536.74 272.4 1541.46 273.12C1546.74 274 1551.06 274.96 1554.42 276C1557.78 276.96 1560.7 278.76 1563.18 281.4C1565.66 284.04 1566.9 287.72 1566.9 292.44C1566.9 296.44 1565.7 300 1563.3 303.12C1560.9 306.24 1557.38 308.68 1552.74 310.44C1548.18 312.12 1542.74 312.96 1536.42 312.96ZM1609.65 312.96C1602.77 312.96 1596.57 311.56 1591.05 308.76C1585.61 305.88 1581.33 301.92 1578.21 296.88C1575.17 291.84 1573.65 286.12 1573.65 279.72C1573.65 273.32 1575.17 267.6 1578.21 262.56C1581.33 257.52 1585.61 253.6 1591.05 250.8C1596.57 247.92 1602.77 246.48 1609.65 246.48C1616.45 246.48 1622.37 247.92 1627.41 250.8C1632.53 253.6 1636.25 257.64 1638.57 262.92L1624.05 270.72C1620.69 264.8 1615.85 261.84 1609.53 261.84C1604.65 261.84 1600.61 263.44 1597.41 266.64C1594.21 269.84 1592.61 274.2 1592.61 279.72C1592.61 285.24 1594.21 289.6 1597.41 292.8C1600.61 296 1604.65 297.6 1609.53 297.6C1615.93 297.6 1620.77 294.64 1624.05 288.72L1638.57 296.64C1636.25 301.76 1632.53 305.76 1627.41 308.64C1622.37 311.52 1616.45 312.96 1609.65 312.96ZM1679.25 312.96C1672.45 312.96 1666.33 311.56 1660.89 308.76C1655.53 305.88 1651.33 301.92 1648.29 296.88C1645.25 291.84 1643.73 286.12 1643.73 279.72C1643.73 273.32 1645.25 267.6 1648.29 262.56C1651.33 257.52 1655.53 253.6 1660.89 250.8C1666.33 247.92 1672.45 246.48 1679.25 246.48C1686.05 246.48 1692.13 247.92 1697.49 250.8C1702.85 253.6 1707.05 257.52 1710.09 262.56C1713.13 267.6 1714.65 273.32 1714.65 279.72C1714.65 286.12 1713.13 291.84 1710.09 296.88C1707.05 301.92 1702.85 305.88 1697.49 308.76C1692.13 311.56 1686.05 312.96 1679.25 312.96ZM1679.25 297.6C1684.05 297.6 1687.97 296 1691.01 292.8C1694.13 289.52 1695.69 285.16 1695.69 279.72C1695.69 274.28 1694.13 269.96 1691.01 266.76C1687.97 263.48 1684.05 261.84 1679.25 261.84C1674.45 261.84 1670.49 263.48 1667.37 266.76C1664.25 269.96 1662.69 274.28 1662.69 279.72C1662.69 285.16 1664.25 289.52 1667.37 292.8C1670.49 296 1674.45 297.6 1679.25 297.6Z" fill="black"/>
<g clip-path="url(#clip0)">
<path fill-rule="evenodd" clip-rule="evenodd" d="M284.877 456.9H75.7559C64.1061 456.9 57.1595 450.429 56.7891 442.137V482.629C56.7891 490.529 63.2604 497.001 71.133 497.001H498.569C506.442 497.001 512.913 490.529 512.913 482.629V443.06C512.096 450.904 505.226 456.9 494.027 456.9H284.877Z" fill="#91561A"/>
<path fill-rule="evenodd" clip-rule="evenodd" d="M74.2744 410.517L60.9088 429.589C58.2671 433.366 56.9463 437.196 56.7891 440.736V442.137C57.1595 450.429 64.1061 456.9 75.7559 456.9H494.027C505.226 456.9 512.096 450.904 512.913 443.06C513.364 438.887 512.096 434.184 508.846 429.589L495.48 410.517C489.432 401.88 482.034 391.393 471.681 390.6C471.286 390.572 465.052 390.548 464.629 390.548C452.532 401.01 427.569 404.416 399.57 404.416H166.858C138.883 404.416 113.896 401.01 101.823 390.548C101.323 390.548 98.3394 390.576 97.8642 390.6C87.6399 391.526 80.2985 401.932 74.2744 410.517V410.517Z" fill="#B5722F"/>
<path fill-rule="evenodd" clip-rule="evenodd" d="M99.87 354.676C91.0225 371.396 92.9479 382.86 101.823 390.548C113.896 401.01 138.883 404.417 166.859 404.417H174.333L202.304 378.108L169.049 352.114C143.667 332.277 117.411 344.689 99.87 354.676Z" fill="#EACEA2"/>
<path fill-rule="evenodd" clip-rule="evenodd" d="M397.403 352.114L376.668 378.185L392.12 404.416H399.57C427.566 404.416 452.529 401.01 464.626 390.548C473.477 382.86 475.43 371.396 466.583 354.676C449.017 344.689 428.677 344.479 397.403 352.114Z" fill="#EACEA2"/>
<path fill-rule="evenodd" clip-rule="evenodd" d="M188.516 252.661C155.736 254.404 143.349 272.525 127.579 302.321L99.8696 354.676C117.411 344.689 137.747 344.479 169.049 352.114H397.403C428.677 344.479 449.017 344.689 466.582 354.676L438.848 302.321C423.079 272.525 410.716 254.432 377.936 252.661C370.539 252.29 364.281 251.368 358.652 249.386L207.43 249.491C201.881 251.42 195.756 252.29 188.516 252.661V252.661Z" fill="#64B0D9"/>
<path fill-rule="evenodd" clip-rule="evenodd" d="M363.17 135.589C341.086 152.204 348.588 165.863 361.849 173.47C372.335 173.627 384.038 162.823 384.038 152.232V143.964C384.038 139.341 380.26 135.589 375.662 135.589H363.17Z" fill="#DAB780"/>
<path fill-rule="evenodd" clip-rule="evenodd" d="M176.709 152.232C176.709 162.823 188.411 173.627 198.873 173.47L215.67 152.787L197.577 135.589H185.085C180.486 135.589 176.709 139.341 176.709 143.964V152.232Z" fill="#DAB780"/>
<path fill-rule="evenodd" clip-rule="evenodd" d="M394.709 378.765L392.12 404.417H399.569C427.565 404.417 452.528 401.006 464.626 390.548C472.233 383.944 474.745 374.565 469.699 361.437C468.721 362.681 467.61 363.817 466.369 364.9C454.272 375.386 429.309 378.765 401.313 378.765H394.709Z" fill="#E1C18F"/>
<path fill-rule="evenodd" clip-rule="evenodd" d="M96.596 361.835C91.7355 374.75 94.2723 384.024 101.827 390.548C113.896 401.006 138.887 404.417 166.859 404.417H174.333L171.691 378.265H164.217C136.245 378.265 111.258 374.859 99.1853 364.397C98.2348 363.579 97.3892 362.733 96.596 361.835Z" fill="#E1C18F"/>
<path fill-rule="evenodd" clip-rule="evenodd" d="M343.015 265.712C348.085 267.242 353.687 267.983 360.158 268.325C392.938 270.069 405.3 288.162 421.095 317.958L436.336 346.751C447.882 347.016 457.603 349.553 466.583 354.676L438.845 302.321C423.076 272.525 410.717 254.432 377.933 252.661C370.539 252.294 364.278 251.368 358.652 249.386C354.983 255.725 349.591 261.166 343.015 265.712V265.712Z" fill="#4A83C9"/>
<path fill-rule="evenodd" clip-rule="evenodd" d="M209.069 251.79C237.359 294.634 334.667 290.832 358.652 249.386C351.23 246.745 344.864 242.255 338.207 234.567C335.855 231.901 329.412 225.559 329.042 225.084L286.806 198.3L234.85 227.701C232.708 229.864 229.7 232.904 228.246 234.567C221.485 242.359 214.985 246.902 207.431 249.491C207.878 250.284 208.566 251.022 209.069 251.79V251.79Z" fill="#E1C18F"/>
<path fill-rule="evenodd" clip-rule="evenodd" d="M198.873 173.47C203.017 192.727 216.701 213.329 234.847 227.701C241.398 232.876 248.53 237.233 255.98 240.458C257.22 240.986 258.489 241.489 259.729 241.964C274.786 247.538 286.093 247.51 301.094 241.912C311.133 238.159 320.641 232.296 329.041 225.084C345.629 210.9 357.967 191.591 361.849 173.47C362.719 169.507 363.17 165.597 363.17 161.82V116.835L286.806 96.2326L197.577 116.835V161.82C197.577 165.597 198.027 169.507 198.873 173.47V173.47Z" fill="#EACEA2"/>
<path fill-rule="evenodd" clip-rule="evenodd" d="M340.055 124.494V169.479C340.055 173.257 339.608 177.167 338.762 181.129C334.88 199.251 322.518 218.56 305.955 232.743C300.039 237.789 293.596 242.202 286.806 245.686C291.321 245.078 295.996 243.809 301.094 241.909C303.764 240.93 306.405 239.77 308.967 238.502C316.099 234.962 322.888 230.367 329.041 225.084C345.632 210.897 357.967 191.588 361.849 173.47C362.719 169.507 363.17 165.597 363.17 161.82V116.835C354.742 120.032 347.082 122.541 340.055 124.494V124.494Z" fill="#E1C18F"/>
<path fill-rule="evenodd" clip-rule="evenodd" d="M197.577 116.835C269.873 97.3403 264.01 154.527 363.17 116.835C408.997 83.4995 364.068 18.9674 315.015 45.066C290.793 57.9564 260.55 39.1747 235.192 50.3214C210.338 61.2585 197.577 84.6107 197.577 116.835Z" fill="#2C1704"/>
<path fill-rule="evenodd" clip-rule="evenodd" d="M311.214 46.8097C351.387 43.3748 379.757 95.6246 340.056 124.494C347.083 122.541 354.742 120.032 363.17 116.835C408.997 83.4995 364.068 18.9674 315.016 45.066C313.747 45.7265 312.479 46.3065 311.214 46.8097Z" fill="#261500"/>
<path fill-rule="evenodd" clip-rule="evenodd" d="M323.153 253.216C328.856 259.107 334.485 262.752 340.876 265.023C341.589 265.261 342.278 265.498 343.015 265.712C349.595 261.169 354.983 255.725 358.652 249.386L358.257 249.229C351.02 246.587 344.734 242.122 338.182 234.595C335.855 231.901 329.412 225.559 329.041 225.084C320.641 232.296 311.133 238.159 301.098 241.912C286.093 247.51 274.786 247.538 259.733 241.965C258.489 241.489 257.224 240.986 255.98 240.458C248.533 237.233 241.398 232.876 234.85 227.701C232.708 229.864 229.699 232.904 228.246 234.567C227.452 235.493 226.687 236.335 225.894 237.156C228.165 239.19 230.517 241.143 232.945 242.995C239.763 248.17 247.213 252.531 255.001 255.753C256.298 256.281 257.591 256.784 258.911 257.231C274.576 262.832 286.383 262.808 302.045 257.207C306.51 255.62 310.868 253.639 315.068 251.315C316.602 250.47 318.953 248.883 323.153 253.216Z" fill="#DAB780"/>
<path fill-rule="evenodd" clip-rule="evenodd" d="M185.693 426.312L174.333 404.416H166.858C138.883 404.416 113.896 401.006 101.823 390.548C101.323 390.548 98.3394 390.572 97.8641 390.6C92.448 391.103 87.8531 394.245 83.8102 398.368C83.6529 398.525 83.5726 398.606 83.5726 398.606C82.4894 399.766 81.4341 400.954 80.4277 402.222C89.0656 425.256 162.393 426.312 185.693 426.312Z" fill="#91561A"/>
<path fill-rule="evenodd" clip-rule="evenodd" d="M380.76 426.312L392.12 404.416H399.57C427.566 404.416 452.529 401.034 464.626 390.548H464.972C466.37 390.548 471.311 390.572 471.681 390.6C477.464 391.023 482.325 394.51 486.553 399L486.497 398.972C486.553 399 486.577 399.025 486.63 399.077L486.762 399.21C487.08 399.552 486.605 400.954 486.022 402.222C477.359 425.256 404.032 426.312 380.76 426.312V426.312Z" fill="#91561A"/>
<path fill-rule="evenodd" clip-rule="evenodd" d="M169.049 352.114L174.333 404.416L175.521 416.143C176.076 421.689 180.091 426.287 185.665 426.287H380.763C386.361 426.287 390.376 421.689 390.932 416.143L392.12 404.416L397.403 352.114L401.394 312.57C401.949 306.996 396.823 302.401 391.222 302.401H175.203C169.629 302.401 164.479 306.996 165.034 312.57L169.049 352.114Z" fill="#E6E6E6"/>
<path fill-rule="evenodd" clip-rule="evenodd" d="M262.081 364.344C262.081 374.46 271.537 382.675 283.214 382.675C294.889 382.675 304.372 374.46 304.372 364.344C304.372 354.225 294.889 346.038 283.214 346.038C271.54 346.038 262.081 354.228 262.081 364.344Z" fill="white"/>
<path fill-rule="evenodd" clip-rule="evenodd" d="M174.333 404.416L175.521 416.143C175.629 417.174 175.839 418.205 176.181 419.155C177.635 423.275 181.146 426.287 185.664 426.287H380.763C385.306 426.287 388.793 423.275 390.247 419.155C390.589 418.205 390.827 417.174 390.932 416.143L392.12 404.416H174.333Z" fill="#C2C7CC"/>
<path d="M248.53 177.212C244.682 177.212 241.565 174.095 241.565 170.248V162.456C241.565 158.609 244.682 155.488 248.53 155.488C252.377 155.488 255.497 158.609 255.497 162.456V170.248C255.497 174.092 252.377 177.212 248.53 177.212Z" fill="black"/>
<path d="M313.139 177.212C309.292 177.212 306.175 174.095 306.175 170.248V162.456C306.175 158.609 309.292 155.488 313.139 155.488C316.986 155.488 320.106 158.609 320.106 162.456V170.248C320.106 174.092 316.99 177.212 313.139 177.212Z" fill="black"/>
</g>
<defs>
<clipPath id="clip0">
<rect width="458" height="458" fill="white" transform="translate(55 39)"/>
</clipPath>
</defs>
</svg>
