<svg width="1430" height="537" viewBox="0 0 1430 537" fill="none" xmlns="http://www.w3.org/2000/svg">
<path fill-rule="evenodd" clip-rule="evenodd" d="M1430 0H0V537H1430V0ZM1392 38H38V499H1392V38Z" fill="black"/>
<path d="M313.757 294H274.757L267.317 312H247.397L284.837 228H304.037L341.597 312H321.197L313.757 294ZM307.637 279.24L294.317 247.08L280.997 279.24H307.637ZM348.992 222.96H367.712V312H348.992V222.96ZM449.165 247.44L421.925 312H402.605L375.485 247.44H394.805L412.685 291.36L431.165 247.44H449.165ZM480.735 246.48C490.735 246.48 498.415 248.88 503.775 253.68C509.135 258.4 511.815 265.56 511.815 275.16V312H494.295V303.96C490.775 309.96 484.215 312.96 474.615 312.96C469.655 312.96 465.335 312.12 461.655 310.44C458.055 308.76 455.295 306.44 453.375 303.48C451.455 300.52 450.495 297.16 450.495 293.4C450.495 287.4 452.735 282.68 457.215 279.24C461.775 275.8 468.775 274.08 478.215 274.08H493.095C493.095 270 491.855 266.88 489.375 264.72C486.895 262.48 483.175 261.36 478.215 261.36C474.775 261.36 471.375 261.92 468.015 263.04C464.735 264.08 461.935 265.52 459.615 267.36L452.895 254.28C456.415 251.8 460.615 249.88 465.495 248.52C470.455 247.16 475.535 246.48 480.735 246.48ZM479.295 300.36C482.495 300.36 485.335 299.64 487.815 298.2C490.295 296.68 492.055 294.48 493.095 291.6V285H480.255C472.575 285 468.735 287.52 468.735 292.56C468.735 294.96 469.655 296.88 471.495 298.32C473.415 299.68 476.015 300.36 479.295 300.36ZM546.637 255.96C548.877 252.84 551.877 250.48 555.637 248.88C559.477 247.28 563.877 246.48 568.837 246.48V263.76C566.757 263.6 565.357 263.52 564.637 263.52C559.277 263.52 555.077 265.04 552.037 268.08C548.997 271.04 547.477 275.52 547.477 281.52V312H528.757V247.44H546.637V255.96ZM610.102 312.96C603.302 312.96 597.182 311.56 591.742 308.76C586.382 305.88 582.182 301.92 579.142 296.88C576.102 291.84 574.582 286.12 574.582 279.72C574.582 273.32 576.102 267.6 579.142 262.56C582.182 257.52 586.382 253.6 591.742 250.8C597.182 247.92 603.302 246.48 610.102 246.48C616.902 246.48 622.982 247.92 628.342 250.8C633.702 253.6 637.902 257.52 640.942 262.56C643.982 267.6 645.502 273.32 645.502 279.72C645.502 286.12 643.982 291.84 640.942 296.88C637.902 301.92 633.702 305.88 628.342 308.76C622.982 311.56 616.902 312.96 610.102 312.96ZM610.102 297.6C614.902 297.6 618.822 296 621.862 292.8C624.982 289.52 626.542 285.16 626.542 279.72C626.542 274.28 624.982 269.96 621.862 266.76C618.822 263.48 614.902 261.84 610.102 261.84C605.302 261.84 601.342 263.48 598.222 266.76C595.102 269.96 593.542 274.28 593.542 279.72C593.542 285.16 595.102 289.52 598.222 292.8C601.342 296 605.302 297.6 610.102 297.6ZM770.359 228V312H754.399L712.519 261V312H693.319V228H709.399L751.159 279V228H770.359ZM819.633 312.96C812.833 312.96 806.713 311.56 801.273 308.76C795.913 305.88 791.713 301.92 788.673 296.88C785.633 291.84 784.113 286.12 784.113 279.72C784.113 273.32 785.633 267.6 788.673 262.56C791.713 257.52 795.913 253.6 801.273 250.8C806.713 247.92 812.833 246.48 819.633 246.48C826.433 246.48 832.513 247.92 837.873 250.8C843.233 253.6 847.433 257.52 850.473 262.56C853.513 267.6 855.033 273.32 855.033 279.72C855.033 286.12 853.513 291.84 850.473 296.88C847.433 301.92 843.233 305.88 837.873 308.76C832.513 311.56 826.433 312.96 819.633 312.96ZM819.633 297.6C824.433 297.6 828.353 296 831.393 292.8C834.513 289.52 836.073 285.16 836.073 279.72C836.073 274.28 834.513 269.96 831.393 266.76C828.353 263.48 824.433 261.84 819.633 261.84C814.833 261.84 810.873 263.48 807.753 266.76C804.633 269.96 803.073 274.28 803.073 279.72C803.073 285.16 804.633 289.52 807.753 292.8C810.873 296 814.833 297.6 819.633 297.6ZM867.546 222.96H886.266V312H867.546V222.96ZM929.68 246.48C939.68 246.48 947.36 248.88 952.72 253.68C958.08 258.4 960.76 265.56 960.76 275.16V312H943.24V303.96C939.72 309.96 933.16 312.96 923.56 312.96C918.6 312.96 914.28 312.12 910.6 310.44C907 308.76 904.24 306.44 902.32 303.48C900.4 300.52 899.44 297.16 899.44 293.4C899.44 287.4 901.68 282.68 906.16 279.24C910.72 275.8 917.72 274.08 927.16 274.08H942.04C942.04 270 940.8 266.88 938.32 264.72C935.84 262.48 932.12 261.36 927.16 261.36C923.72 261.36 920.32 261.92 916.96 263.04C913.68 264.08 910.88 265.52 908.56 267.36L901.84 254.28C905.36 251.8 909.56 249.88 914.44 248.52C919.4 247.16 924.48 246.48 929.68 246.48ZM928.24 300.36C931.44 300.36 934.28 299.64 936.76 298.2C939.24 296.68 941 294.48 942.04 291.6V285H929.2C921.52 285 917.68 287.52 917.68 292.56C917.68 294.96 918.6 296.88 920.44 298.32C922.36 299.68 924.96 300.36 928.24 300.36ZM999.423 312.96C994.063 312.96 988.823 312.32 983.703 311.04C978.583 309.68 974.503 308 971.463 306L977.703 292.56C980.583 294.4 984.063 295.92 988.143 297.12C992.223 298.24 996.223 298.8 1000.14 298.8C1008.06 298.8 1012.02 296.84 1012.02 292.92C1012.02 291.08 1010.94 289.76 1008.78 288.96C1006.62 288.16 1003.3 287.48 998.823 286.92C993.543 286.12 989.183 285.2 985.743 284.16C982.303 283.12 979.303 281.28 976.743 278.64C974.263 276 973.022 272.24 973.022 267.36C973.022 263.28 974.183 259.68 976.503 256.56C978.903 253.36 982.343 250.88 986.823 249.12C991.383 247.36 996.743 246.48 1002.9 246.48C1007.46 246.48 1011.98 247 1016.46 248.04C1021.02 249 1024.78 250.36 1027.74 252.12L1021.5 265.44C1015.82 262.24 1009.62 260.64 1002.9 260.64C998.903 260.64 995.903 261.2 993.903 262.32C991.903 263.44 990.903 264.88 990.903 266.64C990.903 268.64 991.983 270.04 994.143 270.84C996.303 271.64 999.743 272.4 1004.46 273.12C1009.74 274 1014.06 274.96 1017.42 276C1020.78 276.96 1023.7 278.76 1026.18 281.4C1028.66 284.04 1029.9 287.72 1029.9 292.44C1029.9 296.44 1028.7 300 1026.3 303.12C1023.9 306.24 1020.38 308.68 1015.74 310.44C1011.18 312.12 1005.74 312.96 999.423 312.96ZM1072.65 312.96C1065.77 312.96 1059.57 311.56 1054.05 308.76C1048.61 305.88 1044.33 301.92 1041.21 296.88C1038.17 291.84 1036.65 286.12 1036.65 279.72C1036.65 273.32 1038.17 267.6 1041.21 262.56C1044.33 257.52 1048.61 253.6 1054.05 250.8C1059.57 247.92 1065.77 246.48 1072.65 246.48C1079.45 246.48 1085.37 247.92 1090.41 250.8C1095.53 253.6 1099.25 257.64 1101.57 262.92L1087.05 270.72C1083.69 264.8 1078.85 261.84 1072.53 261.84C1067.65 261.84 1063.61 263.44 1060.41 266.64C1057.21 269.84 1055.61 274.2 1055.61 279.72C1055.61 285.24 1057.21 289.6 1060.41 292.8C1063.61 296 1067.65 297.6 1072.53 297.6C1078.93 297.6 1083.77 294.64 1087.05 288.72L1101.57 296.64C1099.25 301.76 1095.53 305.76 1090.41 308.64C1085.37 311.52 1079.45 312.96 1072.65 312.96ZM1142.25 312.96C1135.45 312.96 1129.33 311.56 1123.89 308.76C1118.53 305.88 1114.33 301.92 1111.29 296.88C1108.25 291.84 1106.73 286.12 1106.73 279.72C1106.73 273.32 1108.25 267.6 1111.29 262.56C1114.33 257.52 1118.53 253.6 1123.89 250.8C1129.33 247.92 1135.45 246.48 1142.25 246.48C1149.05 246.48 1155.13 247.92 1160.49 250.8C1165.85 253.6 1170.05 257.52 1173.09 262.56C1176.13 267.6 1177.65 273.32 1177.65 279.72C1177.65 286.12 1176.13 291.84 1173.09 296.88C1170.05 301.92 1165.85 305.88 1160.49 308.76C1155.13 311.56 1149.05 312.96 1142.25 312.96ZM1142.25 297.6C1147.05 297.6 1150.97 296 1154.01 292.8C1157.13 289.52 1158.69 285.16 1158.69 279.72C1158.69 274.28 1157.13 269.96 1154.01 266.76C1150.97 263.48 1147.05 261.84 1142.25 261.84C1137.45 261.84 1133.49 263.48 1130.37 266.76C1127.25 269.96 1125.69 274.28 1125.69 279.72C1125.69 285.16 1127.25 289.52 1130.37 292.8C1133.49 296 1137.45 297.6 1142.25 297.6Z" fill="black"/>
</svg>
