<svg id="Layer_1" enable-background="new 0 0 510 510" height="512" viewBox="0 0 510 510" width="512" xmlns="http://www.w3.org/2000/svg"><g id="XMLID_216_"><path id="XMLID_383_" d="m179.625 73.932 37.688 14.333 37.687-14.333 12.333-29.265-12.333-43.599c-20.29 19.615-63.556 61.438-75.375 72.864z" fill="#ff9100"/><path id="XMLID_381_" d="m255 1.068v72.863l37.688 14.333 37.689-14.333c-9.16-8.853-66.191-63.982-75.377-72.863z" fill="#ff641a"/><path id="XMLID_548_" d="m420 322.267 50-16.669 40-43.044c-10.933-11.676-79.03-84.405-90-96.121l-10 77.917z" fill="#ff641a"/><path id="XMLID_542_" d="m0 261.836 35.333 40.429 54.667 19.63 11.333-74.297-11.333-81.166c-10.967 11.624-79.044 83.79-90 95.404z" fill="#ff9100"/><path id="XMLID_532_" d="m0 261.836v247.096l85.333-63.333 62.865-84.865-24.865-31.801-33.332-7.036c-7.084-4.728-79.282-52.908-90.001-60.061z" fill="#fdbf00"/><path id="XMLID_545_" d="m510 508.932c0-6.946 0-239.432 0-246.377-10.857 7.203-82.052 54.439-90 59.713l-43.667 5.331-14.442 33.224 58.109 81.442z" fill="#ff9100"/><path id="XMLID_544_" d="m148.198 360.733c-8.221 8.222-139.976 139.977-148.198 148.199h255l12.333-60-12.333-60z" fill="#ffda2d"/><path id="XMLID_485_" d="m361.891 360.822-106.891 28.11v120h255c-8.223-8.222-139.888-139.888-148.109-148.11z" fill="#fdbf00"/><path id="XMLID_547_" d="m90 73.932v247.963c36.46 24.331 65.002 43.378 100.455 67.037h64.545l12.333-157.5-12.333-157.5c-4.655 0-160.348 0-165 0z" fill="#f2f4f9"/><path id="XMLID_546_" d="m420 322.267c0-63.659 0-207.097 0-248.336-4.655 0-160.348 0-165 0v315h64.523c13.823-9.171 86.35-57.291 100.477-66.664z" fill="#dbf0f9"/><path id="XMLID_486_" d="m210 163.932c-7.26 0-52.693 0-60 0 0-10.493 0-19.508 0-30h60z" fill="#ff641a"/><path id="XMLID_484_" d="m240 133.932v30h15l7-15-7-15c-5.246 0-9.754 0-15 0z" fill="#78c4f8"/><path id="XMLID_477_" d="m360 133.932c-28.278 0-88.527 0-105 0v30h105c0-10.493 0-19.508 0-30z" fill="#249ec5"/><path id="XMLID_474_" d="m210 223.932c-7.26 0-52.693 0-60 0 0-10.493 0-19.508 0-30h60z" fill="#5a5a5a"/><path id="XMLID_473_" d="m240 193.932v30h15l7-15-7-15c-5.246 0-9.754 0-15 0z" fill="#78c4f8"/><path id="XMLID_471_" d="m360 193.932c-28.278 0-88.527 0-105 0v30h105c0-10.493 0-19.508 0-30z" fill="#249ec5"/><path id="XMLID_466_" d="m210 283.932c-7.26 0-52.693 0-60 0 0-10.493 0-19.508 0-30h60z" fill="#2ee66b"/><path id="XMLID_469_" d="m240 253.932v30h15l7-15-7-15c-5.246 0-9.754 0-15 0z" fill="#78c4f8"/><path id="XMLID_464_" d="m360 253.932c-28.278 0-88.527 0-105 0v30h105c0-10.493 0-19.508 0-30z" fill="#249ec5"/></g></svg>