<svg id="Capa_1" enable-background="new 0 0 512 512" height="512" viewBox="0 0 512 512" width="512" xmlns="http://www.w3.org/2000/svg"><g><path d="m512 256c0 141.38-114.62 256-256 256-81.22 0-153.61-37.83-200.5-96.83-2.531-3.175 4.328-15.722 1.954-19.017-2.861-3.971-14.92 1.284-17.554-2.853-25.26-39.68-39.9-86.78-39.9-137.3 0-141.38 114.62-256 256-256s256 114.62 256 256z" fill="#ebb168"/><g fill="#362a40"><path d="m102.81 370.96-40.35 40.34c-1.99 1.99-4.41 3.28-6.96 3.87-5.58-7-10.78-14.3-15.6-21.87.56-.9 1.23-1.75 2.02-2.54l40.35-40.35z"/><path d="m422.229 411.304c5.672-5.672 5.672-14.869 0-20.541l-40.349-40.349-20.541 20.541 40.349 40.349c5.673 5.673 14.869 5.673 20.541 0z"/></g><path d="m414.034 385.883h-363.915c-21.456 0-38.85-17.394-38.85-38.85v-280.114c0-21.456 17.394-38.85 38.85-38.85h363.914c21.456 0 38.85 17.394 38.85 38.85v280.114c.001 21.456-17.393 38.85-38.849 38.85z" fill="#50405a"/><path d="m87.029 385.879h-36.91c-21.46 0-38.85-17.39-38.85-38.85v-280.11c0-21.46 17.39-38.85 38.85-38.85h36.91c-21.46 0-38.85 17.39-38.85 38.85v280.11c0 21.46 17.39 38.85 38.85 38.85z" fill="#362a40"/><path d="m72.288 355.883c-17.131 0-31.019-13.888-31.019-31.019v-235.776c0-17.131 13.888-31.019 31.019-31.019h319.577c17.131 0 31.019 13.888 31.019 31.019v235.777c0 17.131-13.888 31.019-31.019 31.019h-319.577z" fill="#6daef7"/><path d="m107.209 355.884h-34.92c-17.13 0-31.02-13.88-31.02-31.02v-235.77c0-17.13 13.89-31.02 31.02-31.02h34.92c-17.14 0-31.02 13.89-31.02 31.02v235.77c0 17.14 13.89 31.02 31.02 31.02z" fill="#5892e6"/><g><path d="m376.562 511.994h-79.023c-12.339 0-22.341-10.003-22.341-22.341v-179.783c0-12.339 10.003-22.341 22.341-22.341h79.023c12.339 0 22.341 10.003 22.341 22.341v179.783c0 12.338-10.003 22.341-22.341 22.341z" fill="#50405a"/><path d="m313.498 512h-15.96c-12.34 0-22.34-10.01-22.34-22.35v-179.78c0-12.34 10-22.34 22.34-22.34h15.96c-12.33 0-22.34 10-22.34 22.34v179.78c0 12.34 10.01 22.35 22.34 22.35z" fill="#362a40"/><circle cx="366.811" cy="316.792" fill="#dc4355" r="16.849"/><path d="m371.802 332.892c-1.58.49-3.25.75-4.99.75-9.31 0-16.85-7.54-16.85-16.85 0-9.3 7.54-16.84 16.85-16.84 1.74 0 3.41.26 4.99.75-6.87 2.12-11.87 8.52-11.87 16.09 0 7.58 5 13.98 11.87 16.1z" fill="#c60054"/><path d="m321.67 364.678h-20.285c-4.775 0-8.646-3.871-8.646-8.646 0-4.775 3.871-8.646 8.646-8.646h20.285c4.775 0 8.646 3.871 8.646 8.646 0 4.775-3.871 8.646-8.646 8.646z" fill="#e9eeff"/><path d="m372.715 364.678h-20.285c-4.775 0-8.646-3.871-8.646-8.646 0-4.775 3.871-8.646 8.646-8.646h20.285c4.775 0 8.646 3.871 8.646 8.646 0 4.775-3.87 8.646-8.646 8.646z" fill="#e9eeff"/><path d="m364.104 364.682h-11.68c-4.77 0-8.64-3.87-8.64-8.65 0-2.39.97-4.55 2.53-6.11 1.57-1.56 3.73-2.53 6.11-2.53h11.68c-2.38 0-4.55.97-6.11 2.53-1.57 1.56-2.54 3.72-2.54 6.11 0 4.78 3.88 8.65 8.65 8.65z" fill="#d4daf8"/><path d="m313.059 364.682h-11.68c-4.77 0-8.64-3.87-8.64-8.65 0-2.39.97-4.55 2.53-6.11 1.57-1.56 3.73-2.53 6.11-2.53h11.68c-2.38 0-4.55.97-6.11 2.53-1.57 1.56-2.54 3.72-2.54 6.11 0 4.78 3.88 8.65 8.65 8.65z" fill="#d4daf8"/><path d="m321.67 327.101h-20.285c-4.775 0-8.646-3.871-8.646-8.646 0-4.775 3.871-8.646 8.646-8.646h20.285c4.775 0 8.646 3.871 8.646 8.646 0 4.775-3.871 8.646-8.646 8.646z" fill="#e9eeff"/><path d="m313.059 327.105h-11.68c-4.77 0-8.64-3.87-8.64-8.65 0-2.39.97-4.55 2.53-6.11 1.57-1.56 3.73-2.53 6.11-2.53h11.68c-2.38 0-4.55.97-6.11 2.53-1.57 1.56-2.54 3.72-2.54 6.11 0 4.78 3.88 8.65 8.65 8.65z" fill="#d4daf8"/><g fill="#e9eeff"><path d="m366.715 399.348-9.699 9.699c-1.392 1.392-1.952 3.454-1.329 5.322.648 1.943 1.003 4.019 1.003 6.179s-.355 4.236-1.004 6.178c-.624 1.867-.064 3.929 1.328 5.321l9.698 9.698c2.487 2.487 6.635 1.796 8.271-1.319 3.12-5.94 4.887-12.703 4.887-19.879 0-7.25-1.803-14.077-4.983-20.061-1.611-3.029-5.745-3.565-8.172-1.138z"/><path d="m325.542 400.576c1.393 1.393 3.456 1.953 5.324 1.328 1.943-.65 4.021-1.006 6.183-1.006 2.163 0 4.24.356 6.183 1.006 1.868.625 3.932.065 5.324-1.328l9.69-9.69c2.487-2.487 1.796-6.635-1.319-8.271-5.94-3.12-12.703-4.887-19.879-4.887s-13.939 1.767-19.879 4.887c-3.114 1.636-3.806 5.783-1.319 8.271z"/><path d="m348.549 440.512c-1.392-1.392-3.453-1.952-5.32-1.328-1.942.649-4.018 1.004-6.179 1.004s-4.237-.355-6.179-1.004c-1.867-.624-3.928-.064-5.32 1.328l-9.699 9.699c-2.487 2.487-1.796 6.635 1.319 8.271 5.94 3.12 12.703 4.887 19.879 4.887s13.939-1.767 19.879-4.887c3.114-1.636 3.806-5.783 1.319-8.271z"/><path d="m317.086 432.048c1.392-1.392 1.952-3.454 1.328-5.321-.649-1.942-1.004-4.018-1.004-6.178 0-2.161.355-4.237 1.003-6.179.623-1.868.063-3.93-1.329-5.322l-9.696-9.696c-2.487-2.487-6.635-1.796-8.271 1.319-3.12 5.94-4.887 12.703-4.887 19.879s1.767 13.939 4.887 19.879c1.636 3.114 5.783 3.806 8.271 1.319z"/></g><g fill="#d4daf8"><path d="m373.69 441.748c.05.05.1.1.16.14-1.97 1.8-5.11 1.88-7.14-.14l-9.7-9.7c-1.39-1.39-1.95-3.45-1.32-5.32.64-1.94 1-4.02 1-6.18s-.36-4.24-1-6.18c-.63-1.87-.07-3.93 1.33-5.32l9.69-9.7c2.02-2.02 5.23-1.99 7.18-.17-.07.05-.13.11-.19.17l-9.7 9.7c-1.39 1.39-1.95 3.45-1.33 5.32.65 1.94 1 4.02 1 6.18s-.35 4.24-1 6.18c-.63 1.87-.07 3.93 1.33 5.32z"/><path d="m332.52 400.578c.26.26.54.48.83.68-.85.16-1.68.38-2.48.65-1.87.62-3.94.06-5.33-1.33l-9.69-9.69c-2.49-2.49-1.79-6.64 1.32-8.27 5.94-3.12 12.7-4.89 19.88-4.89 1.18 0 2.34.05 3.49.14-5.88.48-11.42 2.14-16.39 4.75-3.11 1.63-3.8 5.78-1.31 8.27z"/><path d="m324.15 458.478c4.97 2.61 10.51 4.27 16.39 4.75-1.15.09-2.31.14-3.49.14-7.18 0-13.94-1.77-19.88-4.89-3.11-1.63-3.81-5.78-1.32-8.27l9.7-9.7c1.39-1.39 3.45-1.95 5.32-1.32.81.27 1.64.48 2.49.65-.3.19-.57.41-.83.67l-9.7 9.7c-2.48 2.49-1.79 6.64 1.32 8.27z"/><path d="m306.1 440.428c.3.57.69 1.06 1.14 1.46-2.5 2.31-6.52 1.59-8.12-1.46-3.12-5.94-4.89-12.7-4.89-19.88s1.77-13.94 4.89-19.88c1.6-3.05 5.62-3.77 8.12-1.46-.45.4-.84.89-1.14 1.46-3.12 5.94-4.89 12.7-4.89 19.88s1.77 13.94 4.89 19.88z"/></g><circle cx="337.05" cy="420.548" fill="#e9eeff" r="11.14"/><path d="m340.88 431.008c-1.19.44-2.48.68-3.82.68-6.16 0-11.15-4.99-11.15-11.14s4.99-11.14 11.15-11.14c1.34 0 2.63.24 3.82.68-4.27 1.55-7.32 5.65-7.32 10.46s3.05 8.91 7.32 10.46z" fill="#d4daf8"/></g><g fill="#e9eeff"><path d="m322.595 142.77c-8.882-2.952-18.476 1.858-21.427 10.74l-17.828 53.664-18.764-54.056c-3.069-8.843-12.724-13.522-21.569-10.453-8.842 3.069-13.522 12.726-10.453 21.568l33.027 95.148c.013.038.026.077.04.115 2.709 7.626 9.941 12.726 18.024 12.726.043 0 .087 0 .13-.001 8.136-.055 15.361-5.268 17.98-12.97.013-.037.025-.075.038-.112l31.541-94.942c2.952-8.883-1.857-18.476-10.739-21.427z"/><path d="m200.249 141.728h-53.347c-9.36 0-16.948 7.588-16.948 16.948s7.588 16.948 16.948 16.948h9.618v79.65c0 9.36 7.588 16.948 16.948 16.948s16.948-7.588 16.948-16.948v-79.65h9.833c9.36 0 16.948-7.588 16.948-16.948s-7.587-16.948-16.948-16.948z"/></g></g></svg>